<?xml version="1.0" standalone="no"?>
<!DOCTYPE svg PUBLIC "-//W3C//DTD SVG 20010904//EN"
 "http://www.w3.org/TR/2001/REC-SVG-20010904/DTD/svg10.dtd">
<svg version="1.0" xmlns="http://www.w3.org/2000/svg"
 width="223.000000pt" height="226.000000pt" viewBox="0 0 223.000000 226.000000"
 preserveAspectRatio="xMidYMid meet">

<g transform="translate(0.000000,226.000000) scale(0.100000,-0.100000)"
fill="#000000" stroke="none">
<path d="M420 2080 c-217 -99 -401 -188 -408 -197 -9 -13 -12 -180 -12 -755 0
-725 0 -738 20 -758 11 -11 28 -20 38 -20 9 0 204 -24 432 -54 228 -30 416
-53 418 -51 2 1 -5 20 -15 41 -9 22 -18 40 -18 41 -1 2 -764 103 -778 103 -4
0 -7 311 -7 690 0 664 1 690 18 690 23 0 318 -38 350 -46 23 -5 23 -5 17 -127
-11 -203 -23 -522 -20 -525 2 -2 51 24 110 57 58 34 109 61 111 61 3 0 52 -31
109 -70 57 -38 107 -70 110 -70 3 0 5 137 5 305 0 297 1 305 20 305 27 0 602
-79 618 -85 10 -4 12 -34 10 -130 l-3 -125 43 0 42 0 0 133 0 132 253 163 252
162 5 -408 5 -408 38 -52 c21 -28 41 -52 43 -52 8 0 -8 1024 -16 1033 -4 5
-1375 199 -1393 197 -1 0 -180 -81 -397 -180z m528 78 c45 -6 82 -14 82 -17
-1 -3 -109 -73 -242 -155 l-242 -148 -173 23 c-95 12 -171 24 -169 27 16 15
616 281 636 281 14 1 62 -4 108 -11z m832 -113 c140 -19 262 -36 270 -38 12
-2 -432 -287 -473 -303 -13 -5 -506 56 -576 72 -20 4 21 32 225 155 146 87
259 149 274 149 14 0 140 -16 280 -35z"/>
<path d="M1525 1173 c-149 -20 -294 -104 -388 -224 -177 -229 -158 -564 43
-768 118 -120 251 -175 420 -176 133 0 223 27 330 100 129 87 213 214 244 367
20 95 20 143 1 233 -63 299 -352 508 -650 468z m23 -271 l3 -42 85 0 c49 0 98
-6 117 -14 45 -18 84 -67 102 -128 29 -99 14 -124 -40 -68 -37 38 -108 60
-196 60 l-68 0 -3 -42 c-2 -25 -8 -43 -15 -43 -18 0 -203 146 -203 161 0 15
190 166 204 161 6 -2 12 -22 14 -45z m-163 -372 c38 -39 103 -60 192 -60 l73
0 0 33 c0 48 13 63 37 46 89 -64 183 -144 183 -155 0 -20 -188 -167 -206 -160
-9 3 -14 20 -14 46 l0 40 -92 0 c-107 0 -141 15 -182 77 -26 41 -52 136 -41
153 10 16 19 12 50 -20z"/>
</g>
</svg>
